<svg version="1.1" xmlns="http://www.w3.org/2000/svg" viewBox="0 0 10020 753.1300048828125" width="10020" height="753.1300048828125">
  <!-- svg-source:excalidraw -->
  
  <defs>
    <style>
      @font-face {
        font-family: "Virgil";
        src: url("https://excalidraw.com/Virgil.woff2");
      }
      @font-face {
        font-family: "Cascadia";
        src: url("https://excalidraw.com/Cascadia.woff2");
      }
    </style>
  </defs>
  <rect x="0" y="0" width="10020" height="753.1300048828125" fill="#fff0"></rect><g stroke-linecap="round" transform="translate(10 10) rotate(0 5000 0.5)"><path d="M-0.52 -0.26 C3022.65 -30.2, 6044.59 -29.2, 9999.32 0.22 M0.38 -0.31 C3948.03 -0.44, 7895.41 0.2, 9999.95 0.08 M10000.08 -0.06 C10000.09 0.27, 10000.05 0.48, 10000.09 0.92 M9999.97 0.01 C9999.95 0.33, 9999.98 0.72, 10000 0.99 M10000.22 1.51 C7095.77 35.76, 4193.15 34.95, -0.25 0.75 M10000.01 1.13 C7827.97 2.74, 5656.23 3.35, -0.33 0.84 M-0.04 1.01 C0 0.63, -0.06 0.15, 0.05 -0.03 M-0.04 0.95 C-0.04 0.73, -0.03 0.59, -0.05 -0.02" stroke="transparent" stroke-width="1" fill="none"></path></g><g transform="translate(619.8450317382812 600.0899658203125) rotate(0 206.88006591796875 28.320037841796875)" stroke="none"><path fill="#000000" d="M 1.53,-0.27 Q 1.53,-0.27 2.60,5.79 3.67,11.87 5.47,17.10 7.26,22.33 10.96,27.46 14.67,32.59 26.33,40.49 37.99,48.39 50.62,53.68 63.25,58.98 77.91,61.50 92.57,64.01 111.98,63.44 131.39,62.86 146.20,59.87 161.02,56.89 172.79,52.89 184.55,48.89 195.73,38.75 206.90,28.60 213.85,18.29 220.79,7.98 223.70,-2.57 226.61,-13.13 223.47,-27.08 220.33,-41.03 213.30,-51.55 206.28,-62.07 195.45,-68.65 184.62,-75.24 167.75,-77.49 150.88,-79.73 136.05,-77.96 121.22,-76.19 105.39,-68.60 89.55,-61.00 77.05,-51.75 64.54,-42.49 55.70,-32.55 46.85,-22.60 40.66,-10.20 34.46,2.20 31.83,10.70 29.20,19.21 30.50,26.09 31.80,32.97 45.43,43.21 59.05,53.44 84.60,61.13 110.15,68.82 135.60,71.56 161.05,74.29 180.65,73.53 200.25,72.77 217.57,67.51 234.88,62.24 246.29,55.11 257.70,47.97 264.93,38.71 272.17,29.45 274.94,20.98 277.70,12.52 276.21,5.36 274.72,-1.79 262.95,-10.22 251.17,-18.66 238.54,-22.83 225.90,-27.00 213.48,-27.13 201.06,-27.25 185.96,-22.39 170.87,-17.52 159.00,-9.72 147.14,-1.92 137.77,9.83 128.39,21.59 123.07,37.23 117.74,52.87 115.74,64.45 113.73,76.04 114.48,84.33 115.24,92.63 125.35,102.29 135.47,111.96 149.32,118.57 163.17,125.18 180.28,127.99 197.38,130.79 218.90,128.42 240.42,126.04 256.68,120.64 272.94,115.25 285.55,107.50 298.16,99.76 308.64,83.92 319.12,68.09 323.30,54.02 327.48,39.95 325.72,28.16 323.96,16.36 315.11,7.93 306.26,-0.49 292.48,-4.34 278.70,-8.19 253.95,-4.07 229.19,0.03 209.86,7.53 190.52,15.04 175.42,23.17 160.33,31.31 150.35,38.06 140.38,44.81 132.92,53.37 125.47,61.94 122.03,68.44 118.60,74.94 125.33,83.92 132.07,92.91 148.25,100.27 164.44,107.64 183.14,111.63 201.85,115.62 222.18,116.77 242.51,117.92 257.71,116.49 272.92,115.05 283.94,111.46 294.96,107.86 304.44,97.38 313.91,86.89 318.48,75.39 323.04,63.88 323.08,52.57 323.11,41.26 315.25,29.76 307.38,18.26 295.09,11.21 282.79,4.15 268.84,1.15 254.88,-1.84 236.93,-0.11 218.97,1.62 205.88,6.19 192.80,10.75 182.37,17.86 171.94,24.98 164.01,36.43 156.08,47.88 152.72,58.15 149.37,68.42 150.03,76.31 150.70,84.19 163.79,92.65 176.88,101.12 196.13,105.31 215.37,109.50 237.89,111.03 260.41,112.56 286.18,109.63 311.96,106.71 329.72,100.80 347.48,94.90 363.45,81.73 379.42,68.55 388.66,56.12 397.91,43.69 402.07,33.04 406.24,22.39 404.49,13.78 402.75,5.16 394.53,-0.83 386.31,-6.83 360.94,-6.65 335.57,-6.47 319.47,-5.06 303.36,-3.65 288.32,0.23 273.28,4.12 258.98,11.53 244.67,18.94 235.86,25.36 227.05,31.78 222.31,37.97 217.57,44.16 216.13,52.02 214.70,59.88 220.60,69.90 226.50,79.93 239.89,88.84 253.28,97.76 268.85,103.49 284.42,109.22 301.71,111.10 319.00,112.98 330.99,112.41 342.99,111.84 350.65,109.49 358.31,107.14 363.86,98.06 369.42,88.99 369.89,78.99 370.36,69.00 365.15,57.74 359.94,46.49 340.22,31.87 320.50,17.24 299.50,9.36 278.50,1.48 258.61,-1.31 238.72,-4.11 216.58,-1.17 194.44,1.76 178.72,6.84 163.01,11.93 152.53,17.63 142.06,23.33 132.22,34.75 122.37,46.16 117.37,56.18 112.37,66.20 110.82,74.72 109.26,83.23 112.68,92.71 116.11,102.19 123.80,111.11 131.50,120.04 142.10,126.26 152.70,132.49 169.74,134.84 186.78,137.19 201.93,134.63 217.08,132.08 235.01,123.05 252.94,114.02 268.25,101.41 283.55,88.79 297.19,71.63 310.82,54.47 319.34,35.67 327.85,16.87 332.03,4.48 336.21,-7.91 337.99,-15.04 339.76,-22.16 338.14,-27.02 336.53,-31.88 329.16,-35.50 321.80,-39.12 309.45,-38.79 297.11,-38.45 278.39,-32.57 259.68,-26.68 243.74,-18.69 227.81,-10.70 215.57,-1.82 203.33,7.04 191.58,21.22 179.83,35.39 173.76,47.40 167.70,59.42 166.23,68.72 164.77,78.02 170.68,88.37 176.59,98.71 187.24,106.93 197.90,115.16 210.04,119.18 222.18,123.21 236.37,124.38 250.57,125.55 260.64,123.86 270.72,122.17 277.38,119.31 284.03,116.44 289.18,109.88 294.34,103.31 295.96,95.74 297.58,88.17 295.59,80.17 293.59,72.18 285.15,63.39 276.71,54.60 266.57,48.38 256.43,42.16 245.05,38.98 233.67,35.81 222.80,34.73 211.94,33.65 204.40,34.83 196.86,36.02 191.86,37.80 186.86,39.59 183.83,44.99 180.79,50.39 182.99,57.96 185.18,65.52 193.39,72.78 201.59,80.04 213.56,85.62 225.52,91.20 239.94,94.96 254.36,98.71 271.16,99.48 287.97,100.24 300.59,98.92 313.21,97.61 323.42,94.05 333.64,90.49 343.92,81.63 354.20,72.77 359.63,64.14 365.06,55.50 367.06,46.47 369.07,37.44 366.65,27.15 364.22,16.87 360.50,10.07 356.78,3.27 351.45,-1.45 346.11,-6.17 337.88,-9.80 329.64,-13.43 322.34,-14.98 315.04,-16.52 310.17,-16.38 305.31,-16.24 301.27,-13.01 297.23,-9.77 294.72,-3.88 292.22,1.99 291.94,8.75 291.67,15.50 297.26,25.64 302.86,35.78 308.81,44.01 314.76,52.24 318.70,57.99 322.63,63.74 325.16,68.15 327.68,72.56 328.78,75.18 329.87,77.80 328.76,80.72 327.65,83.65 316.78,86.56 305.91,89.47 293.25,89.80 280.60,90.13 266.90,88.32 253.20,86.52 239.59,82.42 225.98,78.32 216.35,74.92 206.72,71.52 200.13,68.97 193.55,66.42 189.10,64.58 184.66,62.74 184.45,62.60 184.24,62.47 184.09,62.27 183.93,62.07 183.85,61.84 183.76,61.60 183.76,61.35 183.76,61.10 183.83,60.87 183.91,60.63 184.05,60.43 184.20,60.23 184.41,60.08 184.61,59.94 184.85,59.87 185.09,59.80 185.34,59.81 185.59,59.82 185.82,59.90 186.05,59.99 186.25,60.15 186.44,60.31 186.57,60.52 186.70,60.73 186.76,60.98 186.82,61.22 186.80,61.47 186.77,61.72 186.67,61.94 186.57,62.17 186.40,62.36 186.24,62.54 186.02,62.66 185.80,62.78 185.55,62.83 185.31,62.87 185.06,62.83 184.81,62.80 184.59,62.68 184.37,62.57 184.19,62.39 184.02,62.21 183.91,61.99 183.80,61.76 183.77,61.52 183.74,61.27 183.79,61.02 183.84,60.78 183.96,60.56 184.09,60.35 184.28,60.18 184.46,60.02 184.70,59.92 184.93,59.83 185.17,59.81 185.42,59.79 185.66,59.85 185.91,59.92 185.91,59.92 185.91,59.92 190.20,61.94 194.50,63.97 201.04,66.51 207.59,69.05 217.17,72.43 226.74,75.80 240.15,79.86 253.55,83.91 267.05,85.71 280.54,87.50 292.91,87.21 305.28,86.92 315.62,84.48 325.96,82.03 326.71,80.15 327.46,78.27 326.43,76.07 325.40,73.87 322.93,69.54 320.47,65.22 316.55,59.50 312.63,53.78 306.59,45.41 300.55,37.04 294.82,26.31 289.09,15.58 289.44,8.29 289.80,1.00 292.66,-5.36 295.53,-11.72 300.23,-15.24 304.94,-18.76 310.25,-18.93 315.57,-19.09 323.13,-17.46 330.70,-15.83 339.26,-11.99 347.83,-8.15 353.44,-3.08 359.06,1.97 362.92,9.11 366.78,16.25 369.20,27.08 371.63,37.91 369.46,47.38 367.30,56.86 361.61,65.80 355.93,74.74 345.24,83.84 334.56,92.94 324.03,96.58 313.50,100.21 300.67,101.54 287.85,102.87 270.78,102.06 253.70,101.26 239.06,97.42 224.41,93.58 212.14,87.80 199.87,82.01 191.32,74.21 182.77,66.42 180.61,58.04 178.44,49.67 182.04,43.53 185.64,37.39 191.05,35.41 196.45,33.42 204.32,32.23 212.18,31.04 223.28,32.16 234.37,33.28 246.07,36.60 257.78,39.91 268.19,46.34 278.59,52.78 287.32,62.09 296.06,71.40 298.10,80.00 300.15,88.61 298.29,96.73 296.44,104.84 290.82,111.80 285.19,118.77 278.18,121.76 271.16,124.76 260.77,126.46 250.37,128.17 235.86,126.94 221.36,125.70 208.85,121.48 196.33,117.25 185.34,108.66 174.35,100.06 168.30,89.02 162.24,77.97 163.79,68.12 165.34,58.27 171.57,46.00 177.80,33.73 189.79,19.33 201.77,4.93 214.20,-4.05 226.62,-13.04 242.76,-21.12 258.89,-29.19 277.95,-35.13 297.02,-41.07 309.93,-41.28 322.84,-41.50 330.74,-37.32 338.64,-33.14 340.47,-27.44 342.30,-21.74 340.50,-14.41 338.70,-7.08 334.47,5.44 330.24,17.96 321.57,37.02 312.89,56.08 299.06,73.45 285.23,90.81 269.68,103.59 254.13,116.36 235.84,125.51 217.54,134.66 202.00,137.22 186.45,139.79 168.95,137.28 151.44,134.77 140.49,128.27 129.54,121.77 121.60,112.45 113.66,103.12 110.18,93.03 106.69,82.94 108.35,73.99 110.02,65.05 115.19,54.75 120.37,44.46 130.57,32.76 140.76,21.06 151.48,15.25 162.19,9.43 178.14,4.29 194.09,-0.84 216.57,-3.77 239.06,-6.71 259.23,-3.84 279.41,-0.97 300.72,7.07 322.04,15.12 342.14,30.20 362.23,45.27 367.60,57.13 372.96,68.99 372.33,79.61 371.69,90.23 365.56,99.80 359.43,109.37 351.28,111.92 343.13,114.46 330.92,115.03 318.71,115.59 301.12,113.64 283.53,111.69 267.68,105.82 251.84,99.94 238.07,90.64 224.30,81.33 218.25,70.58 212.19,59.82 213.81,51.25 215.43,42.68 220.46,36.18 225.48,29.68 234.47,23.14 243.46,16.60 258.04,9.09 272.61,1.58 287.87,-2.34 303.13,-6.27 319.34,-7.68 335.56,-9.10 361.56,-9.07 387.57,-9.04 396.32,-2.39 405.07,4.24 406.88,13.68 408.70,23.12 404.36,34.18 400.03,45.24 390.56,57.90 381.10,70.57 364.73,83.96 348.37,97.36 330.32,103.34 312.27,109.31 286.25,112.25 260.24,115.18 237.52,113.63 214.81,112.07 195.15,107.70 175.50,103.33 162.01,94.25 148.52,85.16 147.69,76.43 146.87,67.69 150.39,57.05 153.91,46.41 162.16,34.63 170.41,22.85 181.17,15.57 191.92,8.28 205.31,3.65 218.70,-0.98 237.05,-2.70 255.40,-4.41 269.74,-1.27 284.07,1.87 296.77,9.29 309.48,16.71 317.57,28.86 325.66,41.02 325.58,52.91 325.49,64.79 320.69,76.70 315.88,88.61 305.90,99.44 295.92,110.27 284.55,113.97 273.18,117.67 257.77,119.11 242.36,120.55 221.84,119.37 201.31,118.19 182.33,114.11 163.35,110.03 146.71,102.29 130.08,94.56 123.22,84.90 116.37,75.23 119.93,67.73 123.48,60.23 131.18,51.44 138.89,42.64 148.98,35.82 159.08,29.00 174.33,20.79 189.57,12.59 209.16,5.01 228.76,-2.55 254.03,-6.63 279.31,-10.72 293.64,-6.58 307.96,-2.45 317.18,6.60 326.40,15.66 328.20,28.13 330.00,40.60 325.66,55.06 321.32,69.51 310.47,85.72 299.61,101.93 286.69,109.83 273.78,117.74 257.25,123.19 240.71,128.65 218.84,131.02 196.97,133.38 179.52,130.47 162.07,127.56 147.87,120.71 133.67,113.87 123.24,103.57 112.81,93.26 111.98,84.44 111.14,75.62 113.20,63.82 115.26,52.02 120.79,36.01 126.32,20.00 136.00,7.95 145.67,-4.09 157.86,-12.05 170.04,-20.01 185.55,-24.94 201.05,-29.87 213.87,-29.69 226.70,-29.50 239.69,-25.15 252.69,-20.80 264.86,-11.76 277.03,-2.73 278.62,5.21 280.21,13.17 277.23,22.09 274.26,31.02 266.69,40.59 259.13,50.16 247.40,57.45 235.67,64.75 218.02,70.07 200.38,75.39 180.58,76.15 160.78,76.90 135.09,74.12 109.40,71.34 83.46,63.45 57.51,55.55 43.50,44.71 29.48,33.87 28.08,26.23 26.69,18.58 29.40,9.80 32.11,1.02 38.49,-11.65 44.87,-24.33 53.92,-34.46 62.97,-44.59 75.69,-53.98 88.41,-63.37 104.64,-71.08 120.87,-78.79 136.04,-80.56 151.21,-82.34 168.56,-79.93 185.91,-77.52 197.15,-70.56 208.40,-63.59 215.64,-52.62 222.87,-41.65 226.02,-27.11 229.16,-12.58 226.08,-1.57 223.00,9.42 215.84,19.99 208.69,30.55 197.09,40.96 185.48,51.36 173.52,55.43 161.55,59.50 146.51,62.52 131.47,65.54 111.80,66.11 92.12,66.67 77.17,64.09 62.21,61.50 49.33,56.09 36.45,50.68 24.43,42.48 12.42,34.28 8.48,28.79 4.54,23.31 2.64,17.86 0.73,12.41 -0.39,6.34 -1.53,0.27 -1.54,0.09 -1.55,-0.09 -1.52,-0.28 -1.49,-0.46 -1.41,-0.63 -1.33,-0.81 -1.21,-0.95 -1.10,-1.10 -0.95,-1.22 -0.80,-1.33 -0.63,-1.41 -0.46,-1.49 -0.27,-1.52 -0.09,-1.55 0.09,-1.54 0.28,-1.53 0.46,-1.47 0.64,-1.42 0.80,-1.32 0.96,-1.22 1.09,-1.09 1.23,-0.96 1.32,-0.80 1.42,-0.63 1.48,-0.45 1.53,-0.27 1.53,-0.27 L 1.53,-0.27 Z"></path></g></svg>